<svg width="24" height="24" fill="none" xmlns="http://www.w3.org/2000/svg"><path fill-rule="evenodd" clip-rule="evenodd" d="M8.508 10.231c-.574-.574.496-2.507.496-2.507.328-.743.167-1.844-.364-2.463L6.263 2.487a1.34 1.34 0 0 0-1.996-.08L2.63 4.044c-1.007 1.007-.626 2.935-.104 4.248 0 0 .661 2.2 5.822 7.36 5.16 5.16 7.36 5.822 7.36 5.822 1.313.522 3.24.903 4.248-.104l1.637-1.637a1.34 1.34 0 0 0-.08-1.997l-2.774-2.376c-.62-.53-1.72-.692-2.463-.364 0 0-2.017.986-2.592.411l-2.546-2.545-2.63-2.63Z" fill="#fff"/></svg>