<svg width="250" height="248" fill="none" xmlns="http://www.w3.org/2000/svg"><path fill-rule="evenodd" clip-rule="evenodd" d="M122.918 1.985c34.11-2.015 71.64-4.78 96.909 18.221 25.965 23.634 32.35 61.909 29.574 96.909-2.563 32.32-21.199 59.438-43.815 82.668-23.016 23.643-49.773 44.676-82.668 47.256-35.331 2.771-72.43-7.395-96.739-33.185C2.388 188.612-1.557 151.743.46 117.115 2.34 84.784 13.226 53.202 36.822 31.019 59.762 9.453 91.488 3.842 122.918 1.985Z" fill="#2D9CDB" fill-opacity=".2"/><g clip-path="url('#clip0_8_64')" fill="#333"><path d="M155.992 180.606H66.617c-1.4 0-2.539-1.138-2.539-2.539V63.302c0-1.4 1.139-2.54 2.54-2.54h5.077a2.539 2.539 0 1 0 0-5.078h-5.078c-4.2 0-7.617 3.417-7.617 7.618v114.765c0 4.201 3.417 7.617 7.617 7.617h89.375a2.539 2.539 0 1 0 0-5.078ZM181.383 55.684H92.008a2.539 2.539 0 1 0 0 5.079h89.375c1.4 0 2.539 1.138 2.539 2.539v114.765a2.541 2.541 0 0 1-2.539 2.539h-5.078a2.539 2.539 0 1 0 0 5.078h5.078c4.2 0 7.617-3.417 7.617-7.617V63.302c0-4.2-3.417-7.618-7.617-7.618Z"/><path d="M90.294 100.562c7.385 0 13.394-6.008 13.394-13.393 0-7.386-6.009-13.394-13.394-13.394-7.386 0-13.394 6.009-13.394 13.394s6.008 13.393 13.394 13.393Zm0-21.709c4.585 0 8.315 3.73 8.315 8.316 0 4.585-3.73 8.315-8.315 8.315-4.585 0-8.316-3.73-8.316-8.315 0-4.585 3.73-8.316 8.316-8.316ZM146.407 101.832c-5.611 0-11.028 1.952-15.361 5.401v-1.592a2.54 2.54 0 0 0-2.539-2.54h-17.71a2.539 2.539 0 0 0-2.539 2.54v59.414a2.539 2.539 0 0 0 2.539 2.539h18.662a2.54 2.54 0 0 0 2.539-2.539v-34.294c0-4.235 3.446-7.68 7.681-7.68 4.235 0 7.68 3.445 7.68 7.68v34.294a2.54 2.54 0 0 0 2.539 2.539h18.663a2.54 2.54 0 0 0 2.539-2.539v-38.531c0-13.615-11.078-24.692-24.693-24.692Zm19.614 60.684h-13.583v-31.755c0-7.035-5.724-12.758-12.759-12.758-7.036 0-12.759 5.723-12.759 12.758v31.755h-13.584V108.18h12.632v5.335a2.54 2.54 0 0 0 4.589 1.496c3.703-5.072 9.629-8.101 15.85-8.101 10.815 0 19.614 8.798 19.614 19.614v35.992ZM80.963 103.101a2.54 2.54 0 0 0-2.54 2.54v59.414a2.54 2.54 0 0 0 2.54 2.539h18.662a2.54 2.54 0 0 0 2.539-2.539v-59.414a2.54 2.54 0 0 0-2.539-2.54H80.963Zm16.123 59.415H83.502V108.18h13.584v54.336ZM81.853 60.763a2.54 2.54 0 0 0 0-5.079h-.002a2.538 2.538 0 1 0 .002 5.079ZM166.149 180.606h-.002a2.538 2.538 0 1 0 .002 5.078 2.538 2.538 0 1 0 0-5.078Z"/></g><defs><clipPath id="clip0_8_64"><path fill="#fff" transform="translate(59 55.684)" d="M0 0h130v130H0z"/></clipPath></defs></svg>