<svg width="250" height="278" fill="none" xmlns="http://www.w3.org/2000/svg"><path fill-rule="evenodd" clip-rule="evenodd" d="M133.376.003c34.679.352 61.446 28.262 83.716 54.848 19.97 23.84 30.524 52.669 32.35 83.716 1.968 33.448-.371 68.495-21.883 94.183-23.167 27.664-58.1 44.22-94.183 44.414-36.254.194-70.075-17.261-95.198-43.399C13.563 208.155-1.757 174.036.16 138.567c1.832-33.87 24.276-60.978 47.785-85.43C72.106 28.004 98.516-.35 133.376.002Z" fill="#2D9CDB" fill-opacity=".2"/><path d="M174.75 143.658V112.25c0-6.894-5.606-12.5-12.5-12.5H68.5c-6.894 0-12.5 5.606-12.5 12.5v62.5c0 6.894 5.606 12.5 12.5 12.5h70.083c4.094 14.406 17.341 25 33.042 25a34.36 34.36 0 0 0 17.191-4.602 3.122 3.122 0 0 0 1.138-4.269 3.116 3.116 0 0 0-4.27-1.139 28.113 28.113 0 0 1-14.059 3.76c-15.509 0-28.125-12.616-28.125-28.125s12.616-28.125 28.125-28.125 28.125 12.616 28.125 28.125V181a6.258 6.258 0 0 1-6.25 6.25 6.258 6.258 0 0 1-6.25-6.25v-12.5a3.124 3.124 0 0 0-3.125-3.125c-.841 0-1.596.34-2.157.879-2.762-2.461-6.361-4.004-10.343-4.004-8.615 0-15.625 7.01-15.625 15.625s7.01 15.625 15.625 15.625c4.657 0 8.798-2.089 11.663-5.333 2.264 3.216 5.988 5.333 10.212 5.333 6.894 0 12.5-5.606 12.5-12.5v-3.125c0-17.9-13.757-32.63-31.25-34.217ZM68.5 106h93.75c.13 0 .239.066.367.074l-44.672 36.669c-1.59 1.001-3.894.794-4.929.159l-44.88-36.828c.127-.008.235-.074.364-.074Zm100 37.658c-17.493 1.587-31.25 16.317-31.25 34.217a34.7 34.7 0 0 0 .158 3.125H68.5a6.258 6.258 0 0 1-6.25-6.25v-62.5c0-.885.196-1.721.529-2.484l46.548 38.171a11.035 11.035 0 0 0 6.048 1.813c2.057 0 4.068-.579 5.838-1.678.177-.095.345-.207.504-.339l46.254-37.968c.334.764.529 1.6.529 2.485v31.408Zm3.125 43.592c-5.17 0-9.375-4.205-9.375-9.375s4.205-9.375 9.375-9.375 9.375 4.205 9.375 9.375-4.205 9.375-9.375 9.375Z" fill="#333"/></svg>