<svg width="250" height="247" fill="none" xmlns="http://www.w3.org/2000/svg"><path fill-rule="evenodd" clip-rule="evenodd" d="M119.792 3.07c30.512 3.406 57.015 18 79.716 38.67 24.15 21.992 48.184 47.123 50.296 79.717 2.215 34.194-14.555 67.008-39.251 90.762-24.231 23.306-57.146 34.889-90.761 34.29-33.005-.589-64.929-13.46-87.583-37.469-22.049-23.367-28.331-55.523-30.413-87.583-2.277-35.064-6.558-74.86 18.248-99.748C44.867-3.196 84.846-.83 119.792 3.07Z" fill="#2D9CDB" fill-opacity=".2"/><g clip-path="url('#clip0_8_65')" fill="#333"><path d="M175.948 176.631a7.835 7.835 0 0 0-3.016-5.382l-25.053-19.364c-4.258-3.286-10.004-3.676-14.652-.988l-4.608 2.663c-2.807 1.617-6.281 1.403-8.85-.583-3.723-2.865-9.281-7.399-14.601-12.724-5.277-5.283-9.729-10.737-12.531-14.382-1.966-2.553-2.184-6.022-.562-8.835l2.662-4.617c2.689-4.659 2.304-10.415-.982-14.658l-19.37-25.053a7.815 7.815 0 0 0-5.37-3.02c-2.148-.25-4.243.39-5.902 1.762-4.254 3.51-9.718 8.096-11.616 10-3.848 3.847-5.491 8.886-5.491 16.862 0 9.303 17.076 43.902 37.64 63.609 19.775 20.643 54.375 37.714 63.687 37.714 7.972 0 13.01-1.643 16.848-5.491 2.054-2.049 7.149-8.164 9.999-11.616a7.83 7.83 0 0 0 1.768-5.897Zm-5.772 2.584c-4.758 5.766-8.278 9.869-9.666 11.257-2.054 2.06-5.075 3.963-13.182 3.963-7.139 0-40.678-16.01-60.01-36.191-20.097-19.265-36.112-52.793-36.112-59.932 0-8.106 1.903-11.127 3.967-13.186 1.373-1.373 5.366-4.805 11.252-9.667a2.662 2.662 0 0 1 2.013-.603 2.672 2.672 0 0 1 1.835 1.035l19.37 25.047a7.97 7.97 0 0 1 .592 8.881l-2.662 4.617c-2.678 4.638-2.309 10.374.941 14.601 2.897 3.77 7.498 9.412 12.979 14.892 5.517 5.517 11.263 10.213 15.105 13.166a13.112 13.112 0 0 0 14.622.972v-.005l4.607-2.662a7.962 7.962 0 0 1 8.876.603l25.047 19.359a2.7 2.7 0 0 1 1.03 1.841 2.648 2.648 0 0 1-.604 2.012ZM136.215 79.88a49.398 49.398 0 0 1 29.54 29.544 2.603 2.603 0 0 0 2.444 1.711c.296 0 .593-.052.884-.161a2.597 2.597 0 0 0 1.555-3.333 54.546 54.546 0 0 0-32.644-32.644c-1.331-.489-2.839.208-3.333 1.55a2.599 2.599 0 0 0 1.554 3.332ZM129.097 99.435c7.872 2.845 14.263 9.24 17.102 17.107a2.607 2.607 0 0 0 2.449 1.716 2.597 2.597 0 0 0 2.449-3.478c-3.364-9.303-10.925-16.868-20.232-20.233a2.598 2.598 0 1 0-1.768 4.888ZM121.989 118.986a7.698 7.698 0 0 1 4.664 4.67 2.604 2.604 0 0 0 2.449 1.726c.286 0 .583-.047.874-.156a2.596 2.596 0 0 0 1.575-3.323 12.854 12.854 0 0 0-7.815-7.81c-1.347-.488-2.834.224-3.322 1.571a2.595 2.595 0 0 0 1.575 3.322Z"/></g><defs><clipPath id="clip0_8_65"><path fill="#fff" transform="translate(46 69.635)" d="M0 0h130v130H0z"/></clipPath></defs></svg>